<svg width="30" height="25" viewBox="0 0 30 25" fill="none" xmlns="http://www.w3.org/2000/svg">
<path d="M19.9428 21.381H13.0565C13.2018 21.6851 13.2837 22.0246 13.2837 22.384C13.2837 23.0243 13.0228 23.6048 12.6021 24.0257L12.5995 24.0283C12.1786 24.4492 11.598 24.71 10.957 24.71C10.3167 24.71 9.73615 24.449 9.31525 24.0283L9.31264 24.0257C8.89177 23.6049 8.63101 23.0243 8.63101 22.384C8.63101 22.0246 8.71318 21.6851 8.85902 21.381H7.27014C6.54695 21.381 5.88938 21.0854 5.41331 20.6093C4.93719 20.1332 4.64167 19.4767 4.64167 18.7525C4.64167 18.0293 4.93719 17.3717 5.41331 16.8966C5.88942 16.4205 6.54592 16.125 7.27014 16.125H8.15147L7.38343 13.2565C7.3756 13.2324 7.36877 13.2081 7.36355 13.183L7.06643 12.0726L6.17126 8.73155C6.16343 8.70745 6.1566 8.68314 6.15137 8.65803L5.16981 4.99374C5.16197 4.97044 5.15595 4.94713 5.15072 4.92283L4.20973 1.41241H1.54949C1.18406 1.41241 0.887756 1.1161 0.887756 0.751453C0.887756 0.386027 1.18407 0.0897217 1.54949 0.0897217H4.71615V0.0905253C5.00825 0.0905253 5.27605 0.285794 5.35459 0.580501L6.30421 4.12465H28.4504V4.12545C28.5066 4.12545 28.5635 4.13228 28.6215 4.14795C28.9741 4.24217 29.1832 4.60418 29.089 4.95677L28.0972 8.65901C28.092 8.68312 28.086 8.70743 28.0781 8.72993L26.885 13.1831C26.8798 13.2082 26.873 13.2323 26.8652 13.2567L25.8828 16.9218C25.8205 17.2225 25.5545 17.4479 25.2347 17.4479H7.26912C6.91053 17.4479 6.58486 17.5947 6.34804 17.8316C6.11138 18.0682 5.96433 18.3949 5.96433 18.7527C5.96433 19.1113 6.11119 19.4369 6.34804 19.6738C6.58469 19.9104 6.91133 20.0575 7.26912 20.0575H22.0394C22.6796 20.0575 23.2602 20.3184 23.6819 20.7391L23.6845 20.7417C24.1054 21.1626 24.3662 21.7432 24.3662 22.3842C24.3662 23.0245 24.106 23.605 23.6845 24.0259L23.6819 24.0285C23.2611 24.4494 22.6805 24.7102 22.0394 24.7102C21.3992 24.7102 20.8186 24.4492 20.3969 24.0285L20.3943 24.0259C19.9734 23.6051 19.7126 23.0245 19.7126 22.3842C19.7126 22.0248 19.7938 21.6853 19.9406 21.3812L19.9428 21.381ZM8.51897 12.3876H13.2606L12.9651 9.1856H7.66078L8.07121 10.7166L8.51897 12.3876ZM14.5845 12.3876H19.6657L19.9612 9.1856H14.2891L14.5854 12.3876H14.5845ZM20.9894 12.3876H25.7319L26.5899 9.1856H21.2856L20.99 12.3876H20.9894ZM25.3768 13.7105H20.8676L20.6446 16.1247H24.7306L25.3768 13.7105ZM19.5438 13.7105H14.7071L14.9301 16.1247H19.321L19.544 13.7105H19.5438ZM13.3832 13.7105H8.87316L9.52024 16.1247H13.6062L13.3832 13.7105ZM7.30639 7.86209H12.8432L12.6202 5.44798H6.66015L7.30722 7.86209H7.30639ZM14.1664 7.86209H20.0833L20.3063 5.44798H13.943L14.166 7.86209H14.1664ZM21.4071 7.86209H26.9439L27.591 5.44798H21.6299L21.4069 7.86209H21.4071ZM22.7515 21.6727C22.5701 21.4921 22.3196 21.3806 22.0413 21.3806C21.7631 21.3806 21.5117 21.4921 21.3311 21.6727C21.1505 21.8541 21.0382 22.1056 21.0382 22.3839C21.0382 22.6621 21.1505 22.9134 21.3311 23.094C21.5125 23.2746 21.763 23.3869 22.0413 23.3869C22.3195 23.3869 22.5709 23.2746 22.7515 23.094C22.9321 22.9126 23.0444 22.6611 23.0444 22.3839C23.0444 22.1056 22.9321 21.8543 22.7515 21.6727ZM11.6671 21.6745C11.4857 21.4931 11.2352 21.3808 10.9577 21.3808C10.6795 21.3808 10.4282 21.4923 10.2475 21.6729C10.0669 21.8543 9.95464 22.1058 9.95464 22.3841C9.95464 22.6623 10.0669 22.9136 10.2475 23.0943C10.4289 23.2749 10.6795 23.3872 10.9577 23.3872C11.236 23.3872 11.4873 23.2749 11.6689 23.0943C11.8495 22.9128 11.961 22.6613 11.961 22.3841C11.961 22.1066 11.8487 21.8561 11.6673 21.6747L11.6671 21.6745Z" fill="white"/>
</svg>
