<svg width="221" height="70" viewBox="0 0 221 70" fill="none" xmlns="http://www.w3.org/2000/svg">
<path d="M78.1781 19.2H89.2181L74.5301 69.504H60.0341L50.1461 24.384L39.9701 69.504H25.2821L10.7861 19.2H22.1141L33.1541 62.112L43.1381 19.2H57.4421L67.0421 61.248L78.1781 19.2Z" fill="black"/>
<path d="M97.5056 11.424V0H108.354V11.424H97.5056ZM97.7936 69.504V19.2H108.066V69.504H97.7936Z" fill="black"/>
<path fill-rule="evenodd" clip-rule="evenodd" d="M115.438 32.1466C116.058 34.5524 116.286 35.2765 116.683 36.0899C118.858 40.5466 122.842 42.9645 130.214 44.3018C131.207 44.482 133.266 44.8539 134.79 45.1283C138.504 45.7974 140.718 46.5508 142.432 47.7292C146.845 50.7618 146.37 56.4312 141.52 58.6373C140.877 58.93 139.369 59.3465 138.168 59.5632C136.232 59.9127 134.835 59.9571 125.775 59.9571H115.564V64.7306L115.564 69.504H126.574C136.308 69.504 137.927 69.4569 140.539 69.0968C144.98 68.4848 147.028 67.8663 149.427 66.4125C155.031 63.0167 156.736 55.4047 153.236 49.4138C150.724 45.1152 146.269 42.9682 137.002 41.5907C134.74 41.2545 132.108 40.6512 130.663 40.1375C128.865 39.4985 126.857 38.0154 125.951 36.6573C125.192 35.5208 125.087 35.1235 125.09 33.3918C125.092 31.6618 125.191 31.2903 125.898 30.3603C127.054 28.8373 128.044 28.1076 129.678 27.5728C132.435 26.6704 134.112 26.5579 144.928 26.5502L155.118 26.543V21.7695V17.002L144.475 17C133.29 17.0044 129.758 17.1955 126.405 17.9777C120.959 19.2485 117.677 21.8743 116.16 26.1758C115.568 27.8569 115.173 31.1184 115.438 32.1466Z" fill="black"/>
<path d="M162.118 43.2C162.118 34.56 164.358 28.032 168.838 23.616C173.318 19.136 179.27 16.896 186.694 16.896C202.374 16.896 210.214 26.24 210.214 44.928V46.176H172.39C172.774 51.36 174.278 55.328 176.902 58.08C179.59 60.768 183.078 62.112 187.366 62.112C193.446 62.112 197.574 59.52 199.75 54.336L209.542 55.008C208.198 59.552 205.606 63.104 201.766 65.664C197.99 68.224 193.19 69.504 187.366 69.504C179.622 69.504 173.478 67.296 168.934 62.88C164.39 58.464 162.118 51.904 162.118 43.2ZM172.486 39.456H200.038C199.846 34.72 198.566 31.008 196.198 28.32C193.83 25.632 190.662 24.288 186.694 24.288C182.726 24.288 179.462 25.568 176.902 28.128C174.406 30.688 172.934 34.464 172.486 39.456Z" fill="black"/>
</svg>
