<svg width="52" height="46" viewBox="0 0 52 46" fill="none" xmlns="http://www.w3.org/2000/svg">
<circle cx="19" cy="27" r="19" fill="#FFB904" fill-opacity="0.49"/>
<path d="M24.704 34.123C25.0507 34.123 25.3453 34.1793 25.588 34.292C25.8307 34.4047 26.0083 34.5087 26.121 34.604C26.407 34.838 26.5803 34.682 26.641 34.136H26.94C26.9227 34.3787 26.9097 34.669 26.901 35.007C26.8923 35.3363 26.888 35.7827 26.888 36.346H26.589C26.537 36.0253 26.446 35.7133 26.316 35.41C26.1947 35.1067 26.0127 34.8597 25.77 34.669C25.5273 34.4697 25.211 34.37 24.821 34.37C24.5177 34.37 24.262 34.4567 24.054 34.63C23.8547 34.7947 23.755 35.0417 23.755 35.371C23.755 35.631 23.833 35.8563 23.989 36.047C24.145 36.229 24.3487 36.4023 24.6 36.567C24.8513 36.723 25.1243 36.8963 25.419 37.087C25.7483 37.295 26.0473 37.5073 26.316 37.724C26.5847 37.9407 26.797 38.179 26.953 38.439C27.1177 38.699 27.2 39.0067 27.2 39.362C27.2 39.7607 27.096 40.0943 26.888 40.363C26.68 40.6317 26.407 40.8353 26.069 40.974C25.7397 41.1127 25.3757 41.182 24.977 41.182C24.7863 41.182 24.6043 41.1647 24.431 41.13C24.2663 41.104 24.106 41.0607 23.95 41C23.8633 40.9567 23.7723 40.9047 23.677 40.844C23.5903 40.7833 23.5037 40.7183 23.417 40.649C23.3303 40.5797 23.2523 40.584 23.183 40.662C23.1137 40.7313 23.0617 40.8743 23.027 41.091H22.728C22.7453 40.8137 22.7583 40.4757 22.767 40.077C22.7757 39.6783 22.78 39.1497 22.78 38.491H23.079C23.1397 38.9763 23.2263 39.401 23.339 39.765C23.4517 40.129 23.6293 40.415 23.872 40.623C24.1147 40.8223 24.4527 40.922 24.886 40.922C25.0593 40.922 25.2327 40.883 25.406 40.805C25.588 40.727 25.7397 40.597 25.861 40.415C25.9823 40.233 26.043 39.9903 26.043 39.687C26.043 39.3057 25.9043 38.9937 25.627 38.751C25.3497 38.5083 24.9987 38.2527 24.574 37.984C24.262 37.7847 23.9673 37.5853 23.69 37.386C23.4213 37.1867 23.2003 36.9613 23.027 36.71C22.8623 36.4587 22.78 36.1553 22.78 35.8C22.78 35.41 22.8667 35.0937 23.04 34.851C23.222 34.5997 23.4603 34.4177 23.755 34.305C24.0497 34.1837 24.366 34.123 24.704 34.123ZM30.2845 32.147V34.318H32.2085V34.578H30.2845V39.609C30.2845 40.0163 30.3581 40.3023 30.5055 40.467C30.6528 40.6317 30.8565 40.714 31.1165 40.714C31.3765 40.714 31.6018 40.61 31.7925 40.402C31.9831 40.1853 32.1478 39.8257 32.2865 39.323L32.5465 39.388C32.4598 39.8907 32.2865 40.3153 32.0265 40.662C31.7751 41.0087 31.3851 41.182 30.8565 41.182C30.5618 41.182 30.3191 41.143 30.1285 41.065C29.9378 40.9957 29.7688 40.8917 29.6215 40.753C29.4308 40.5537 29.2965 40.3153 29.2185 40.038C29.1491 39.7607 29.1145 39.3923 29.1145 38.933V34.578H27.8665V34.318H29.1145V32.329C29.3311 32.3203 29.5391 32.303 29.7385 32.277C29.9378 32.251 30.1198 32.2077 30.2845 32.147ZM35.9722 34.123C36.5268 34.123 37.0252 34.2443 37.4672 34.487C37.9092 34.7297 38.2602 35.111 38.5202 35.631C38.7888 36.151 38.9232 36.827 38.9232 37.659C38.9232 38.491 38.7888 39.167 38.5202 39.687C38.2602 40.1983 37.9092 40.5753 37.4672 40.818C37.0252 41.0607 36.5268 41.182 35.9722 41.182C35.4262 41.182 34.9278 41.0607 34.4772 40.818C34.0352 40.5753 33.6798 40.1983 33.4112 39.687C33.1512 39.167 33.0212 38.491 33.0212 37.659C33.0212 36.827 33.1512 36.151 33.4112 35.631C33.6798 35.111 34.0352 34.7297 34.4772 34.487C34.9278 34.2443 35.4262 34.123 35.9722 34.123ZM35.9722 34.383C35.4782 34.383 35.0708 34.6387 34.7502 35.15C34.4382 35.6613 34.2822 36.4977 34.2822 37.659C34.2822 38.8203 34.4382 39.6567 34.7502 40.168C35.0708 40.6707 35.4782 40.922 35.9722 40.922C36.4662 40.922 36.8692 40.6707 37.1812 40.168C37.5018 39.6567 37.6622 38.8203 37.6622 37.659C37.6622 36.4977 37.5018 35.6613 37.1812 35.15C36.8692 34.6387 36.4662 34.383 35.9722 34.383ZM43.9522 34.123C44.1862 34.123 44.3899 34.1707 44.5632 34.266C44.7452 34.3613 44.8839 34.487 44.9792 34.643C45.0832 34.7903 45.1352 34.9593 45.1352 35.15C45.1352 35.3667 45.0659 35.5573 44.9272 35.722C44.7972 35.8867 44.6196 35.969 44.3942 35.969C44.2122 35.969 44.0519 35.9127 43.9132 35.8C43.7746 35.6787 43.7052 35.5097 43.7052 35.293C43.7052 35.1283 43.7486 34.9897 43.8352 34.877C43.9306 34.7557 44.0346 34.6603 44.1472 34.591C44.0866 34.5043 43.9956 34.461 43.8742 34.461C43.6056 34.461 43.3586 34.5433 43.1332 34.708C42.9079 34.864 42.7172 35.0677 42.5612 35.319C42.4052 35.5703 42.2839 35.839 42.1972 36.125C42.1106 36.4023 42.0672 36.6623 42.0672 36.905V39.661C42.0672 40.0857 42.1886 40.3717 42.4312 40.519C42.6826 40.6577 43.0206 40.727 43.4452 40.727V41C43.2459 40.9913 42.9642 40.9827 42.6002 40.974C42.2362 40.9567 41.8506 40.948 41.4432 40.948C41.1486 40.948 40.8539 40.9567 40.5592 40.974C40.2732 40.9827 40.0566 40.9913 39.9092 41V40.727C40.2646 40.727 40.5159 40.662 40.6632 40.532C40.8192 40.402 40.8972 40.155 40.8972 39.791V35.722C40.8972 35.332 40.8279 35.046 40.6892 34.864C40.5506 34.6733 40.2906 34.578 39.9092 34.578V34.305C40.1866 34.331 40.4552 34.344 40.7152 34.344C40.9666 34.344 41.2049 34.331 41.4302 34.305C41.6642 34.2703 41.8766 34.2227 42.0672 34.162V35.787C42.1626 35.5357 42.2969 35.2843 42.4702 35.033C42.6522 34.773 42.8689 34.5563 43.1202 34.383C43.3716 34.2097 43.6489 34.123 43.9522 34.123ZM48.6034 34.123C49.366 34.123 49.9597 34.357 50.3844 34.825C50.8177 35.2843 51.0344 36.0037 51.0344 36.983H46.4454L46.4324 36.736H49.7864C49.8037 36.3113 49.769 35.9213 49.6824 35.566C49.5957 35.202 49.457 34.9117 49.2664 34.695C49.0844 34.4783 48.846 34.37 48.5514 34.37C48.1527 34.37 47.7974 34.5693 47.4854 34.968C47.182 35.3667 47 35.9993 46.9394 36.866L46.9784 36.918C46.961 37.048 46.948 37.191 46.9394 37.347C46.9307 37.503 46.9264 37.659 46.9264 37.815C46.9264 38.4043 47.0217 38.9113 47.2124 39.336C47.403 39.7607 47.65 40.0857 47.9534 40.311C48.2654 40.5277 48.586 40.636 48.9154 40.636C49.1754 40.636 49.4224 40.597 49.6564 40.519C49.8904 40.4323 50.107 40.2937 50.3064 40.103C50.5057 39.9123 50.679 39.6567 50.8264 39.336L51.0864 39.44C50.991 39.726 50.835 40.0033 50.6184 40.272C50.4017 40.5407 50.1287 40.7617 49.7994 40.935C49.47 41.0997 49.0887 41.182 48.6554 41.182C48.0314 41.182 47.494 41.039 47.0434 40.753C46.6014 40.467 46.259 40.0727 46.0164 39.57C45.7824 39.0587 45.6654 38.4737 45.6654 37.815C45.6654 37.0523 45.7867 36.398 46.0294 35.852C46.272 35.2973 46.6144 34.8727 47.0564 34.578C47.4984 34.2747 48.014 34.123 48.6034 34.123Z" fill="#3E3E3D"/>
<path d="M28.359 6.052V6.641C27.6977 6.78567 26.9847 7.075 26.22 7.509C25.476 7.943 24.6907 8.64567 23.864 9.617L18.036 16.561L19.834 13.988L27.212 25.489C27.5013 25.9643 27.8113 26.3467 28.142 26.636C28.4727 26.9253 28.9067 27.1733 29.444 27.38V28C28.7207 27.9587 27.9147 27.938 27.026 27.938C26.1373 27.9173 25.3313 27.907 24.608 27.907C24.174 27.907 23.647 27.9173 23.027 27.938C22.407 27.938 21.6217 27.9587 20.671 28V27.38C21.5183 27.3387 22.0247 27.225 22.19 27.039C22.376 26.8323 22.3037 26.481 21.973 25.985L17.478 18.7C17.1887 18.2247 16.9303 17.8733 16.703 17.646C16.4757 17.398 16.2483 17.2327 16.021 17.15C15.7937 17.0467 15.494 16.9847 15.122 16.964V16.313C16.0313 16.2923 16.8373 16.0443 17.54 15.569C18.2633 15.0937 19.0487 14.3703 19.896 13.399L21.725 11.198C22.5103 10.268 22.965 9.47233 23.089 8.811C23.2337 8.129 23.0993 7.602 22.686 7.23C22.2933 6.858 21.6837 6.66167 20.857 6.641V6.052C21.3737 6.07267 21.8593 6.09333 22.314 6.114C22.7893 6.114 23.275 6.12433 23.771 6.145C24.2877 6.145 24.8457 6.145 25.445 6.145C26.0443 6.145 26.5817 6.13467 27.057 6.114C27.553 6.09333 27.987 6.07267 28.359 6.052ZM17.633 6.052V6.672C16.9717 6.69267 16.4653 6.77533 16.114 6.92C15.7833 7.044 15.5663 7.292 15.463 7.664C15.3597 8.01533 15.308 8.57333 15.308 9.338V24.714C15.308 25.458 15.3597 26.016 15.463 26.388C15.587 26.76 15.8143 27.008 16.145 27.132C16.4757 27.256 16.9717 27.3387 17.633 27.38V28C17.075 27.9587 16.3723 27.938 15.525 27.938C14.6777 27.9173 13.82 27.907 12.952 27.907C11.96 27.907 11.0197 27.9173 10.131 27.938C9.263 27.938 8.57067 27.9587 8.054 28V27.38C8.71533 27.3387 9.21133 27.256 9.542 27.132C9.87267 27.008 10.0897 26.76 10.193 26.388C10.317 26.016 10.379 25.458 10.379 24.714V9.338C10.379 8.57333 10.317 8.01533 10.193 7.664C10.0897 7.292 9.86233 7.044 9.511 6.92C9.18033 6.77533 8.69467 6.69267 8.054 6.672V6.052C8.57067 6.07267 9.263 6.09333 10.131 6.114C11.0197 6.13467 11.96 6.145 12.952 6.145C13.82 6.145 14.6777 6.13467 15.525 6.114C16.3723 6.09333 17.075 6.07267 17.633 6.052ZM50.6129 6.052V6.672C49.9515 6.75467 49.4556 6.93033 49.1249 7.199C48.7942 7.447 48.5669 7.85 48.4429 8.408C48.3396 8.966 48.2879 9.75133 48.2879 10.764V28.062C48.0399 28.0413 47.7816 28.031 47.5129 28.031C47.2649 28.031 46.9962 28.0413 46.7069 28.062L33.2529 11.012V22.916C33.2529 24.0527 33.3149 24.931 33.4389 25.551C33.5629 26.1503 33.8315 26.5843 34.2449 26.853C34.6789 27.101 35.3505 27.2767 36.2599 27.38V28C35.8672 27.9587 35.3505 27.938 34.7099 27.938C34.0692 27.9173 33.4699 27.907 32.9119 27.907C32.4365 27.907 31.9509 27.9173 31.4549 27.938C30.9589 27.938 30.5455 27.9587 30.2149 28V27.38C30.8762 27.2767 31.3722 27.101 31.7029 26.853C32.0335 26.605 32.2505 26.202 32.3539 25.644C32.4779 25.0653 32.5399 24.28 32.5399 23.288V9.338C32.5399 8.57333 32.4779 8.01533 32.3539 7.664C32.2505 7.292 32.0232 7.044 31.6719 6.92C31.3412 6.77533 30.8555 6.69267 30.2149 6.672V6.052C30.5455 6.07267 30.9589 6.09333 31.4549 6.114C31.9509 6.13467 32.4365 6.145 32.9119 6.145C33.4079 6.145 33.8832 6.13467 34.3379 6.114C34.7925 6.09333 35.2059 6.07267 35.5779 6.052L47.5749 20.839V11.136C47.5749 9.99933 47.5129 9.13133 47.3889 8.532C47.2649 7.912 46.9859 7.46767 46.5519 7.199C46.1386 6.93033 45.4772 6.75467 44.5679 6.672V6.052C44.9606 6.07267 45.4772 6.09333 46.1179 6.114C46.7586 6.13467 47.3579 6.145 47.9159 6.145C48.4119 6.145 48.8976 6.13467 49.3729 6.114C49.8689 6.09333 50.2822 6.07267 50.6129 6.052Z" fill="black"/>
</svg>
