<svg width="468" height="166" viewBox="0 0 468 166" fill="none" xmlns="http://www.w3.org/2000/svg">
<path fill-rule="evenodd" clip-rule="evenodd" d="M57.7161 154.683C58.4371 154.972 59.3001 154.936 59.6321 154.604C59.9641 154.272 59.3741 154.036 58.3201 154.079C57.1551 154.127 56.9181 154.364 57.7161 154.683Z" fill="white"/>
<path fill-rule="evenodd" clip-rule="evenodd" d="M176.653 144.662C177.341 144.94 178.466 144.94 179.153 144.662C179.841 144.385 179.278 144.158 177.903 144.158C176.528 144.158 175.966 144.385 176.653 144.662Z" fill="#7B7B7B"/>
<path fill-rule="evenodd" clip-rule="evenodd" d="M274.735 12.583C274.318 28.409 274.73 28 259.212 28H247.903V38V48H260.403H272.903V63.98V79.959L276.72 81.907C280.327 83.747 283.655 86.716 282.796 87.328C282.58 87.481 280.481 88.443 278.132 89.465C275.277 90.707 273.659 92.122 273.255 93.732C272.923 95.057 272.883 103.647 273.167 112.82C273.757 131.895 275.057 137.483 280.337 143.652C285.786 150.018 292.096 152.257 306.103 152.794C312.538 153.041 320.3 152.931 323.353 152.55L328.903 151.856V141.31V130.763L320.653 131.422C314.999 131.873 310.987 131.667 307.903 130.768C301.277 128.835 299.706 125.036 299.144 109.588C298.593 94.471 299.239 92.581 305.899 89.813C308.651 88.669 310.889 87.456 310.871 87.117C310.792 85.579 308.056 83.118 304.284 81.195C299.253 78.628 298.903 77.272 298.903 60.375V48H313.903H328.903V38V28H313.903H298.903V14V0H286.985H275.066L274.735 12.583ZM173.662 18.896C171.621 23.728 171.514 23.808 165.498 24.972C147.394 28.475 137.702 33.759 132.552 42.935C129.962 47.549 129.439 49.677 129.087 57.033C128.11 77.472 136.994 88.135 161.048 95.392C165.802 96.826 170.346 98 171.146 98C171.945 98 173.419 96.182 174.421 93.959C176.839 88.597 178.795 89.165 181.397 95.984C183.481 101.445 183.505 101.465 191.166 104.349C195.391 105.939 200.547 108.709 202.625 110.505C206.147 113.55 206.403 114.146 206.403 119.305C206.403 123.817 205.941 125.341 203.903 127.555C201.143 130.554 194.781 133.72 190.903 134.025C185.003 134.488 184.346 134.11 182.187 129C179.281 122.12 176.536 122.094 173.653 128.918C171.638 133.687 171.462 133.826 167.85 133.495C159.423 132.724 150.941 125.344 149.47 117.505L148.812 114L139.108 114.014C133.77 114.021 128.338 114.312 127.037 114.661C124.896 115.234 124.726 115.693 125.249 119.507C126.353 127.566 129.844 134.851 135.242 140.365C141.413 146.668 148.64 150.278 159.484 152.475C169.366 154.478 171.806 153.76 174.358 148.1C176.772 142.746 178.94 142.837 181.646 148.408C184.245 153.757 186.739 154.544 196.268 153.022C212.899 150.365 224.729 143.043 230.068 132.101C231.872 128.403 232.322 125.733 232.358 118.5C232.397 110.63 232.054 108.789 229.623 103.839C224.656 93.726 215.322 87.445 197.801 82.431C192.632 80.952 188.253 79.349 188.07 78.871C187.886 78.392 186.984 78 186.063 78C184.937 78 183.727 76.156 182.359 72.351C180.979 68.512 179.611 66.436 178.091 65.874C176.129 65.148 175.591 65.588 173.708 69.464C171.729 73.538 171.322 73.84 168.482 73.343C163.846 72.533 157.628 67.921 155.597 63.787C151.733 55.921 156.842 47.482 167.052 44.865C171.923 43.617 172.411 43.205 174.288 38.763C176.979 32.392 179.068 32.508 181.599 39.169C183.425 43.975 183.898 44.435 188.353 45.734C196.246 48.035 200.641 51.592 203.69 58.147L206.403 63.979L212.006 63.99C215.088 63.995 220.404 63.708 223.819 63.351L230.028 62.702L229.401 58.601C228.366 51.836 223.28 42.502 218.185 38.017C212.22 32.766 203.073 28.422 194.598 26.814C190.916 26.115 187.903 25.197 187.903 24.772C187.903 24.347 187.092 24 186.101 24C184.888 24 183.61 22.368 182.187 19C179.284 12.128 176.536 12.095 173.662 18.896ZM33.4031 26.485C20.6001 29.316 11.9221 34.864 7.45114 43.077C3.69414 49.98 2.73314 62.463 5.28314 71.234C8.31514 81.665 19.1021 90.545 33.6571 94.591C37.0921 95.546 39.9031 96.704 39.9031 97.164C39.9031 97.624 40.6911 98.001 41.6531 98.003C42.7941 98.005 44.6221 100.328 46.9031 104.676C48.8281 108.344 50.8531 111.34 51.4031 111.332C51.9531 111.324 53.2931 109.697 54.3801 107.716C55.4681 105.735 57.2771 103.695 58.4011 103.183C61.2491 101.885 72.6771 106.228 77.5911 110.476C81.1511 113.553 81.4031 114.138 81.4031 119.305C81.4031 123.817 80.9411 125.341 78.9031 127.555C75.4231 131.337 69.0721 133.962 61.6791 134.677L55.4031 135.283L51.9651 140.62C50.0731 143.555 48.2731 145.709 47.9651 145.407C47.6561 145.106 46.6931 142.763 45.8241 140.202C44.3781 135.936 43.6881 135.272 37.5751 132.265C30.1971 128.636 25.5831 123.439 24.4701 117.505L23.8121 114L14.1081 114.014C8.77012 114.021 3.33813 114.312 2.03713 114.661C-0.103866 115.234 -0.273875 115.693 0.249125 119.507C2.55912 136.358 14.7391 148.516 32.9031 152.104C41.1551 153.733 44.2411 155.846 45.7551 160.901C46.4171 163.109 47.3181 165.139 47.7591 165.411C48.1991 165.683 50.2231 163.293 52.2571 160.101L55.9551 154.296L64.9811 153.655C84.4141 152.276 99.0681 144.396 105.068 132.101C106.872 128.403 107.322 125.733 107.358 118.5C107.397 110.63 107.054 108.789 104.623 103.839C99.5631 93.535 90.5461 87.576 71.7091 82.089C65.8761 80.39 60.4841 79 59.7261 79C58.1351 79 55.6671 81.664 53.5971 85.615L52.1571 88.363L50.0411 83.431C46.8301 75.95 46.6151 75.698 40.9041 72.773C34.1771 69.327 31.2491 66.577 29.8761 62.418C27.5161 55.267 32.0421 48.069 40.7251 45.165C43.6861 44.175 44.3031 44.309 46.3991 46.405C47.6921 47.698 49.3051 50.611 49.9851 52.878C50.6641 55.145 51.5351 57 51.9201 57C52.3051 57 54.2991 54.471 56.3511 51.38C59.9621 45.941 60.2031 45.777 63.8391 46.265C70.0871 47.103 75.6071 51.519 78.6901 58.147L81.4031 63.979L87.0061 63.99C90.0881 63.995 95.4041 63.708 98.8191 63.351L105.028 62.702L104.401 58.601C102.652 47.172 94.2861 36.659 82.4721 31.046C77.5411 28.703 63.8571 25 60.1291 25C59.6571 25 58.2921 26.742 57.0961 28.87C53.3241 35.582 52.2091 35.879 50.0131 30.756C47.3351 24.51 45.0251 23.916 33.4031 26.485ZM409.663 26.499C398.813 29.24 390.314 35.188 384.735 43.946L381.903 48.392V38.196V28H369.903H357.903L357.803 53.75C357.748 67.913 357.399 80.591 357.026 81.925C356.569 83.559 354.252 85.501 349.924 87.876L343.499 91.401L348.951 93.765C358.112 97.738 357.855 96.817 357.881 125.75L357.903 151H370.871H383.838L384.121 125.049C384.443 95.403 384.757 96.615 375.863 93.2C372.86 92.047 371.092 91.081 371.934 91.052C372.776 91.023 375.995 89.418 379.087 87.484C383.307 84.844 384.588 83.511 384.227 82.132C383.47 79.238 385.659 69.204 388.268 63.606C393.308 52.794 402.936 46.78 415.244 46.756C431.207 46.724 439.168 54.878 441.357 73.5C442.32 81.687 441.174 83.898 433.895 87.892L427.499 91.401L432.951 93.765C442.112 97.738 441.855 96.817 441.881 125.75L441.903 151H454.903H467.903L467.87 125.25C467.832 95.992 468.028 96.741 459.578 93.514L454.799 91.689L459.148 89.094C468.963 83.238 468.286 84.741 467.61 70.299C466.721 51.327 463.283 42.025 454.207 34.036C447.234 27.898 440.517 25.769 426.903 25.379C419.153 25.157 413.531 25.522 409.663 26.499Z" fill="black"/>
<path fill-rule="evenodd" clip-rule="evenodd" d="M274.735 12.583C274.318 28.409 274.73 28 259.212 28H247.903V38V48H260.403H272.903V63.98V79.959L276.72 81.907C280.327 83.747 283.655 86.716 282.796 87.328C282.58 87.481 280.481 88.443 278.132 89.465C275.277 90.707 273.659 92.122 273.255 93.732C272.923 95.057 272.883 103.647 273.167 112.82C273.757 131.895 275.057 137.483 280.337 143.652C285.786 150.018 292.096 152.257 306.103 152.794C312.538 153.041 320.3 152.931 323.353 152.55L328.903 151.856V141.31V130.763L320.653 131.422C314.999 131.873 310.987 131.667 307.903 130.768C301.277 128.835 299.706 125.036 299.144 109.588C298.593 94.471 299.239 92.581 305.899 89.813C308.651 88.669 310.889 87.456 310.871 87.117C310.792 85.579 308.056 83.118 304.284 81.195C299.253 78.628 298.903 77.272 298.903 60.375V48H313.903H328.903V38V28H313.903H298.903V14V0H286.985H275.066L274.735 12.583ZM173.662 18.896C171.621 23.728 171.514 23.808 165.498 24.972C147.394 28.475 137.702 33.759 132.552 42.935C129.962 47.549 129.439 49.677 129.087 57.033C128.11 77.472 136.994 88.135 161.048 95.392C165.802 96.826 170.346 98 171.146 98C171.945 98 173.419 96.182 174.421 93.959C176.839 88.597 178.795 89.165 181.397 95.984C183.481 101.445 183.505 101.465 191.166 104.349C195.391 105.939 200.547 108.709 202.625 110.505C206.147 113.55 206.403 114.146 206.403 119.305C206.403 123.817 205.941 125.341 203.903 127.555C201.143 130.554 194.781 133.72 190.903 134.025C185.003 134.488 184.346 134.11 182.187 129C179.281 122.12 176.536 122.094 173.653 128.918C171.638 133.687 171.462 133.826 167.85 133.495C159.423 132.724 150.941 125.344 149.47 117.505L148.812 114L139.108 114.014C133.77 114.021 128.338 114.312 127.037 114.661C124.896 115.234 124.726 115.693 125.249 119.507C126.353 127.566 129.844 134.851 135.242 140.365C141.413 146.668 148.64 150.278 159.484 152.475C169.366 154.478 171.806 153.76 174.358 148.1C176.772 142.746 178.94 142.837 181.646 148.408C184.245 153.757 186.739 154.544 196.268 153.022C212.899 150.365 224.729 143.043 230.068 132.101C231.872 128.403 232.322 125.733 232.358 118.5C232.397 110.63 232.054 108.789 229.623 103.839C224.656 93.726 215.322 87.445 197.801 82.431C192.632 80.952 188.253 79.349 188.07 78.871C187.886 78.392 186.984 78 186.063 78C184.937 78 183.727 76.156 182.359 72.351C180.979 68.512 179.611 66.436 178.091 65.874C176.129 65.148 175.591 65.588 173.708 69.464C171.729 73.538 171.322 73.84 168.482 73.343C163.846 72.533 157.628 67.921 155.597 63.787C151.733 55.921 156.842 47.482 167.052 44.865C171.923 43.617 172.411 43.205 174.288 38.763C176.979 32.392 179.068 32.508 181.599 39.169C183.425 43.975 183.898 44.435 188.353 45.734C196.246 48.035 200.641 51.592 203.69 58.147L206.403 63.979L212.006 63.99C215.088 63.995 220.404 63.708 223.819 63.351L230.028 62.702L229.401 58.601C228.366 51.836 223.28 42.502 218.185 38.017C212.22 32.766 203.073 28.422 194.598 26.814C190.916 26.115 187.903 25.197 187.903 24.772C187.903 24.347 187.092 24 186.101 24C184.888 24 183.61 22.368 182.187 19C179.284 12.128 176.536 12.095 173.662 18.896ZM33.4031 26.485C20.6001 29.316 11.9221 34.864 7.45114 43.077C3.69414 49.98 2.73314 62.463 5.28314 71.234C8.31514 81.665 19.1021 90.545 33.6571 94.591C37.0921 95.546 39.9031 96.704 39.9031 97.164C39.9031 97.624 40.6911 98.001 41.6531 98.003C42.7941 98.005 44.6221 100.328 46.9031 104.676C48.8281 108.344 50.8531 111.34 51.4031 111.332C51.9531 111.324 53.2931 109.697 54.3801 107.716C55.4681 105.735 57.2771 103.695 58.4011 103.183C61.2491 101.885 72.6771 106.228 77.5911 110.476C81.1511 113.553 81.4031 114.138 81.4031 119.305C81.4031 123.817 80.9411 125.341 78.9031 127.555C75.4231 131.337 69.0721 133.962 61.6791 134.677L55.4031 135.283L51.9651 140.62C50.0731 143.555 48.2731 145.709 47.9651 145.407C47.6561 145.106 46.6931 142.763 45.8241 140.202C44.3781 135.936 43.6881 135.272 37.5751 132.265C30.1971 128.636 25.5831 123.439 24.4701 117.505L23.8121 114L14.1081 114.014C8.77012 114.021 3.33813 114.312 2.03713 114.661C-0.103866 115.234 -0.273875 115.693 0.249125 119.507C2.55912 136.358 14.7391 148.516 32.9031 152.104C41.1551 153.733 44.2411 155.846 45.7551 160.901C46.4171 163.109 47.3181 165.139 47.7591 165.411C48.1991 165.683 50.2231 163.293 52.2571 160.101L55.9551 154.296L64.9811 153.655C84.4141 152.276 99.0681 144.396 105.068 132.101C106.872 128.403 107.322 125.733 107.358 118.5C107.397 110.63 107.054 108.789 104.623 103.839C99.5631 93.535 90.5461 87.576 71.7091 82.089C65.8761 80.39 60.4841 79 59.7261 79C58.1351 79 55.6671 81.664 53.5971 85.615L52.1571 88.363L50.0411 83.431C46.8301 75.95 46.6151 75.698 40.9041 72.773C34.1771 69.327 31.2491 66.577 29.8761 62.418C27.5161 55.267 32.0421 48.069 40.7251 45.165C43.6861 44.175 44.3031 44.309 46.3991 46.405C47.6921 47.698 49.3051 50.611 49.9851 52.878C50.6641 55.145 51.5351 57 51.9201 57C52.3051 57 54.2991 54.471 56.3511 51.38C59.9621 45.941 60.2031 45.777 63.8391 46.265C70.0871 47.103 75.6071 51.519 78.6901 58.147L81.4031 63.979L87.0061 63.99C90.0881 63.995 95.4041 63.708 98.8191 63.351L105.028 62.702L104.401 58.601C102.652 47.172 94.2861 36.659 82.4721 31.046C77.5411 28.703 63.8571 25 60.1291 25C59.6571 25 58.2921 26.742 57.0961 28.87C53.3241 35.582 52.2091 35.879 50.0131 30.756C47.3351 24.51 45.0251 23.916 33.4031 26.485ZM409.663 26.499C398.813 29.24 390.314 35.188 384.735 43.946L381.903 48.392V38.196V28H369.903H357.903L357.803 53.75C357.748 67.913 357.399 80.591 357.026 81.925C356.569 83.559 354.252 85.501 349.924 87.876L343.499 91.401L348.951 93.765C358.112 97.738 357.855 96.817 357.881 125.75L357.903 151H370.871H383.838L384.121 125.049C384.443 95.403 384.757 96.615 375.863 93.2C372.86 92.047 371.092 91.081 371.934 91.052C372.776 91.023 375.995 89.418 379.087 87.484C383.307 84.844 384.588 83.511 384.227 82.132C383.47 79.238 385.659 69.204 388.268 63.606C393.308 52.794 402.936 46.78 415.244 46.756C431.207 46.724 439.168 54.878 441.357 73.5C442.32 81.687 441.174 83.898 433.895 87.892L427.499 91.401L432.951 93.765C442.112 97.738 441.855 96.817 441.881 125.75L441.903 151H454.903H467.903L467.87 125.25C467.832 95.992 468.028 96.741 459.578 93.514L454.799 91.689L459.148 89.094C468.963 83.238 468.286 84.741 467.61 70.299C466.721 51.327 463.283 42.025 454.207 34.036C447.234 27.898 440.517 25.769 426.903 25.379C419.153 25.157 413.531 25.522 409.663 26.499Z" fill="black"/>
<path fill-rule="evenodd" clip-rule="evenodd" d="M274.735 12.583C274.318 28.409 274.73 28 259.212 28H247.903V38V48H260.403H272.903V63.98V79.959L276.72 81.907C280.327 83.747 283.655 86.716 282.796 87.328C282.58 87.481 280.481 88.443 278.132 89.465C275.277 90.707 273.659 92.122 273.255 93.732C272.923 95.057 272.883 103.647 273.167 112.82C273.757 131.895 275.057 137.483 280.337 143.652C285.786 150.018 292.096 152.257 306.103 152.794C312.538 153.041 320.3 152.931 323.353 152.55L328.903 151.856V141.31V130.763L320.653 131.422C314.999 131.873 310.987 131.667 307.903 130.768C301.277 128.835 299.706 125.036 299.144 109.588C298.593 94.471 299.239 92.581 305.899 89.813C308.651 88.669 310.889 87.456 310.871 87.117C310.792 85.579 308.056 83.118 304.284 81.195C299.253 78.628 298.903 77.272 298.903 60.375V48H313.903H328.903V38V28H313.903H298.903V14V0H286.985H275.066L274.735 12.583ZM173.662 18.896C171.621 23.728 171.514 23.808 165.498 24.972C147.394 28.475 137.702 33.759 132.552 42.935C129.962 47.549 129.439 49.677 129.087 57.033C128.11 77.472 136.994 88.135 161.048 95.392C165.802 96.826 170.346 98 171.146 98C171.945 98 173.419 96.182 174.421 93.959C176.839 88.597 178.795 89.165 181.397 95.984C183.481 101.445 183.505 101.465 191.166 104.349C195.391 105.939 200.547 108.709 202.625 110.505C206.147 113.55 206.403 114.146 206.403 119.305C206.403 123.817 205.941 125.341 203.903 127.555C201.143 130.554 194.781 133.72 190.903 134.025C185.003 134.488 184.346 134.11 182.187 129C179.281 122.12 176.536 122.094 173.653 128.918C171.638 133.687 171.462 133.826 167.85 133.495C159.423 132.724 150.941 125.344 149.47 117.505L148.812 114L139.108 114.014C133.77 114.021 128.338 114.312 127.037 114.661C124.896 115.234 124.726 115.693 125.249 119.507C126.353 127.566 129.844 134.851 135.242 140.365C141.413 146.668 148.64 150.278 159.484 152.475C169.366 154.478 171.806 153.76 174.358 148.1C176.772 142.746 178.94 142.837 181.646 148.408C184.245 153.757 186.739 154.544 196.268 153.022C212.899 150.365 224.729 143.043 230.068 132.101C231.872 128.403 232.322 125.733 232.358 118.5C232.397 110.63 232.054 108.789 229.623 103.839C224.656 93.726 215.322 87.445 197.801 82.431C192.632 80.952 188.253 79.349 188.07 78.871C187.886 78.392 186.984 78 186.063 78C184.937 78 183.727 76.156 182.359 72.351C180.979 68.512 179.611 66.436 178.091 65.874C176.129 65.148 175.591 65.588 173.708 69.464C171.729 73.538 171.322 73.84 168.482 73.343C163.846 72.533 157.628 67.921 155.597 63.787C151.733 55.921 156.842 47.482 167.052 44.865C171.923 43.617 172.411 43.205 174.288 38.763C176.979 32.392 179.068 32.508 181.599 39.169C183.425 43.975 183.898 44.435 188.353 45.734C196.246 48.035 200.641 51.592 203.69 58.147L206.403 63.979L212.006 63.99C215.088 63.995 220.404 63.708 223.819 63.351L230.028 62.702L229.401 58.601C228.366 51.836 223.28 42.502 218.185 38.017C212.22 32.766 203.073 28.422 194.598 26.814C190.916 26.115 187.903 25.197 187.903 24.772C187.903 24.347 187.092 24 186.101 24C184.888 24 183.61 22.368 182.187 19C179.284 12.128 176.536 12.095 173.662 18.896ZM33.4031 26.485C20.6001 29.316 11.9221 34.864 7.45114 43.077C3.69414 49.98 2.73314 62.463 5.28314 71.234C8.31514 81.665 19.1021 90.545 33.6571 94.591C37.0921 95.546 39.9031 96.704 39.9031 97.164C39.9031 97.624 40.6911 98.001 41.6531 98.003C42.7941 98.005 44.6221 100.328 46.9031 104.676C48.8281 108.344 50.8531 111.34 51.4031 111.332C51.9531 111.324 53.2931 109.697 54.3801 107.716C55.4681 105.735 57.2771 103.695 58.4011 103.183C61.2491 101.885 72.6771 106.228 77.5911 110.476C81.1511 113.553 81.4031 114.138 81.4031 119.305C81.4031 123.817 80.9411 125.341 78.9031 127.555C75.4231 131.337 69.0721 133.962 61.6791 134.677L55.4031 135.283L51.9651 140.62C50.0731 143.555 48.2731 145.709 47.9651 145.407C47.6561 145.106 46.6931 142.763 45.8241 140.202C44.3781 135.936 43.6881 135.272 37.5751 132.265C30.1971 128.636 25.5831 123.439 24.4701 117.505L23.8121 114L14.1081 114.014C8.77012 114.021 3.33813 114.312 2.03713 114.661C-0.103866 115.234 -0.273875 115.693 0.249125 119.507C2.55912 136.358 14.7391 148.516 32.9031 152.104C41.1551 153.733 44.2411 155.846 45.7551 160.901C46.4171 163.109 47.3181 165.139 47.7591 165.411C48.1991 165.683 50.2231 163.293 52.2571 160.101L55.9551 154.296L64.9811 153.655C84.4141 152.276 99.0681 144.396 105.068 132.101C106.872 128.403 107.322 125.733 107.358 118.5C107.397 110.63 107.054 108.789 104.623 103.839C99.5631 93.535 90.5461 87.576 71.7091 82.089C65.8761 80.39 60.4841 79 59.7261 79C58.1351 79 55.6671 81.664 53.5971 85.615L52.1571 88.363L50.0411 83.431C46.8301 75.95 46.6151 75.698 40.9041 72.773C34.1771 69.327 31.2491 66.577 29.8761 62.418C27.5161 55.267 32.0421 48.069 40.7251 45.165C43.6861 44.175 44.3031 44.309 46.3991 46.405C47.6921 47.698 49.3051 50.611 49.9851 52.878C50.6641 55.145 51.5351 57 51.9201 57C52.3051 57 54.2991 54.471 56.3511 51.38C59.9621 45.941 60.2031 45.777 63.8391 46.265C70.0871 47.103 75.6071 51.519 78.6901 58.147L81.4031 63.979L87.0061 63.99C90.0881 63.995 95.4041 63.708 98.8191 63.351L105.028 62.702L104.401 58.601C102.652 47.172 94.2861 36.659 82.4721 31.046C77.5411 28.703 63.8571 25 60.1291 25C59.6571 25 58.2921 26.742 57.0961 28.87C53.3241 35.582 52.2091 35.879 50.0131 30.756C47.3351 24.51 45.0251 23.916 33.4031 26.485ZM409.663 26.499C398.813 29.24 390.314 35.188 384.735 43.946L381.903 48.392V38.196V28H369.903H357.903L357.803 53.75C357.748 67.913 357.399 80.591 357.026 81.925C356.569 83.559 354.252 85.501 349.924 87.876L343.499 91.401L348.951 93.765C358.112 97.738 357.855 96.817 357.881 125.75L357.903 151H370.871H383.838L384.121 125.049C384.443 95.403 384.757 96.615 375.863 93.2C372.86 92.047 371.092 91.081 371.934 91.052C372.776 91.023 375.995 89.418 379.087 87.484C383.307 84.844 384.588 83.511 384.227 82.132C383.47 79.238 385.659 69.204 388.268 63.606C393.308 52.794 402.936 46.78 415.244 46.756C431.207 46.724 439.168 54.878 441.357 73.5C442.32 81.687 441.174 83.898 433.895 87.892L427.499 91.401L432.951 93.765C442.112 97.738 441.855 96.817 441.881 125.75L441.903 151H454.903H467.903L467.87 125.25C467.832 95.992 468.028 96.741 459.578 93.514L454.799 91.689L459.148 89.094C468.963 83.238 468.286 84.741 467.61 70.299C466.721 51.327 463.283 42.025 454.207 34.036C447.234 27.898 440.517 25.769 426.903 25.379C419.153 25.157 413.531 25.522 409.663 26.499Z" fill="black"/>
</svg>
