<?xml version="1.0" encoding="UTF-8"?>
<svg width="700pt" height="700pt" version="1.1" viewBox="0 0 700 700" xmlns="http://www.w3.org/2000/svg" xmlns:xlink="http://www.w3.org/1999/xlink">
 <defs>
  <symbol id="t" overflow="visible">
   <path d="m19.297-1.1562c-1 0.52344-2.043 0.91406-3.125 1.1719-1.0742 0.25781-2.1953 0.39062-3.3594 0.39062-3.5 0-6.2734-0.97266-8.3125-2.9219-2.043-1.957-3.0625-4.6094-3.0625-7.9531 0-3.3633 1.0195-6.0195 3.0625-7.9688 2.0391-1.957 4.8125-2.9375 8.3125-2.9375 1.1641 0 2.2852 0.13672 3.3594 0.40625 1.082 0.26172 2.125 0.64844 3.125 1.1562v4.3438c-1.0117-0.6875-2.0078-1.1875-2.9844-1.5-0.96875-0.32031-1.9922-0.48438-3.0625-0.48438-1.9375 0-3.4609 0.62109-4.5625 1.8594-1.1055 1.2422-1.6562 2.9492-1.6562 5.125 0 2.1562 0.55078 3.8555 1.6562 5.0938 1.1016 1.2422 2.625 1.8594 4.5625 1.8594 1.0703 0 2.0938-0.15625 3.0625-0.46875 0.97656-0.32031 1.9727-0.82812 2.9844-1.5156z"/>
  </symbol>
  <symbol id="d" overflow="visible">
   <path d="m14.125-11.453c-0.44922-0.20703-0.89062-0.35938-1.3281-0.45312-0.42969-0.10156-0.86719-0.15625-1.3125-0.15625-1.293 0-2.2891 0.41797-2.9844 1.25-0.69922 0.82422-1.0469 2.0117-1.0469 3.5625v7.25h-5.0312v-15.75h5.0312v2.5938c0.64453-1.0312 1.3828-1.7812 2.2188-2.25 0.84375-0.47656 1.8516-0.71875 3.0312-0.71875 0.16406 0 0.34766 0.011719 0.54688 0.03125 0.19531 0.011719 0.48438 0.039062 0.85938 0.078125z"/>
  </symbol>
  <symbol id="a" overflow="visible">
   <path d="m18.141-7.9219v1.4375h-11.766c0.11328 1.1875 0.53516 2.0781 1.2656 2.6719 0.73828 0.58594 1.7656 0.875 3.0781 0.875 1.0508 0 2.1328-0.15625 3.25-0.46875 1.1133-0.3125 2.2539-0.78906 3.4219-1.4375v3.8906c-1.1875 0.44922-2.3828 0.78906-3.5781 1.0156-1.1875 0.22656-2.375 0.34375-3.5625 0.34375-2.8555 0-5.0742-0.72266-6.6562-2.1719-1.5742-1.4453-2.3594-3.4766-2.3594-6.0938 0-2.5703 0.77344-4.5938 2.3281-6.0625 1.5508-1.4688 3.6875-2.2031 6.4062-2.2031 2.4766 0 4.457 0.74609 5.9375 2.2344 1.4883 1.4922 2.2344 3.4805 2.2344 5.9688zm-5.1719-1.6719c0-0.95703-0.28125-1.7266-0.84375-2.3125-0.55469-0.58203-1.2812-0.875-2.1875-0.875-0.96875 0-1.7617 0.27734-2.375 0.82812-0.60547 0.54297-0.98438 1.3281-1.1406 2.3594z"/>
  </symbol>
  <symbol id="k" overflow="visible">
   <path d="m9.4844-7.0938c-1.0547 0-1.8438 0.18359-2.375 0.54688-0.53125 0.35547-0.79688 0.875-0.79688 1.5625 0 0.64844 0.21094 1.1523 0.64062 1.5156 0.42578 0.35547 1.0195 0.53125 1.7812 0.53125 0.94531 0 1.7422-0.33594 2.3906-1.0156 0.64453-0.6875 0.96875-1.5391 0.96875-2.5625v-0.57812zm7.6875-1.8906v8.9844h-5.0781v-2.3281c-0.67969 0.94922-1.4375 1.6406-2.2812 2.0781s-1.8711 0.65625-3.0781 0.65625c-1.6367 0-2.9648-0.47266-3.9844-1.4219-1.0117-0.95703-1.5156-2.1914-1.5156-3.7031 0-1.8516 0.63281-3.207 1.9062-4.0625 1.2695-0.86328 3.2656-1.2969 5.9844-1.2969h2.9688v-0.39062c0-0.80078-0.32031-1.3828-0.95312-1.75-0.625-0.375-1.6016-0.5625-2.9219-0.5625-1.0859 0-2.0898 0.10938-3.0156 0.32812-0.92969 0.21094-1.793 0.53125-2.5938 0.96875v-3.8438c1.082-0.25781 2.1641-0.45703 3.25-0.59375 1.0938-0.13281 2.1797-0.20312 3.2656-0.20312 2.8438 0 4.8945 0.5625 6.1562 1.6875 1.2578 1.1172 1.8906 2.9336 1.8906 5.4531z"/>
  </symbol>
  <symbol id="b" overflow="visible">
   <path d="m7.9219-20.219v4.4688h5.1875v3.5938h-5.1875v6.6875c0 0.73047 0.14062 1.2266 0.42188 1.4844 0.28906 0.26172 0.86719 0.39062 1.7344 0.39062h2.5938v3.5938h-4.3125c-1.9922 0-3.4023-0.41016-4.2344-1.2344-0.83594-0.83203-1.25-2.2422-1.25-4.2344v-6.6875h-2.5v-3.5938h2.5v-4.4688z"/>
  </symbol>
  <symbol id="j" overflow="visible">
   <path d="m13.141-13.438v-8.4375h5.0469v21.875h-5.0469v-2.2812c-0.69922 0.92969-1.4648 1.6094-2.2969 2.0469-0.83594 0.42578-1.8047 0.64062-2.9062 0.64062-1.9375 0-3.5312-0.76953-4.7812-2.3125-1.2422-1.5391-1.8594-3.5234-1.8594-5.9531 0-2.4258 0.61719-4.4102 1.8594-5.9531 1.25-1.5391 2.8438-2.3125 4.7812-2.3125 1.0938 0 2.0547 0.21875 2.8906 0.65625 0.84375 0.4375 1.6133 1.1172 2.3125 2.0312zm-3.3281 10.188c1.082 0 1.9062-0.39062 2.4688-1.1719 0.57031-0.78906 0.85938-1.9375 0.85938-3.4375s-0.28906-2.6406-0.85938-3.4219c-0.5625-0.78906-1.3867-1.1875-2.4688-1.1875-1.0625 0-1.8828 0.39844-2.4531 1.1875-0.5625 0.78125-0.84375 1.9219-0.84375 3.4219s0.28125 2.6484 0.84375 3.4375c0.57031 0.78125 1.3906 1.1719 2.4531 1.1719z"/>
  </symbol>
  <symbol id="e" overflow="visible">
   <path d="m10.797-3.25c1.082 0 1.9062-0.39062 2.4688-1.1719 0.57031-0.78906 0.85938-1.9375 0.85938-3.4375s-0.28906-2.6406-0.85938-3.4219c-0.5625-0.78906-1.3867-1.1875-2.4688-1.1875-1.0742 0-1.9023 0.39844-2.4844 1.1875-0.57422 0.79297-0.85938 1.9336-0.85938 3.4219 0 1.4922 0.28516 2.6328 0.85938 3.4219 0.58203 0.79297 1.4102 1.1875 2.4844 1.1875zm-3.3438-10.188c0.69531-0.91406 1.4688-1.5938 2.3125-2.0312s1.8125-0.65625 2.9062-0.65625c1.9375 0 3.5234 0.77344 4.7656 2.3125 1.25 1.543 1.875 3.5273 1.875 5.9531 0 2.4297-0.625 4.4141-1.875 5.9531-1.2422 1.543-2.8281 2.3125-4.7656 2.3125-1.0938 0-2.0625-0.21875-2.9062-0.65625s-1.6172-1.1133-2.3125-2.0312v2.2812h-5.0312v-21.875h5.0312z"/>
  </symbol>
  <symbol id="i" overflow="visible">
   <path d="m0.34375-15.75h5.0469l4.2344 10.688 3.5938-10.688h5.0312l-6.625 17.234c-0.66797 1.7578-1.4453 2.9883-2.3281 3.6875-0.88672 0.69531-2.0547 1.0469-3.5 1.0469h-2.9219v-3.3125h1.5781c0.85156 0 1.4727-0.13672 1.8594-0.40625 0.39453-0.27344 0.70312-0.75781 0.92188-1.4531l0.14062-0.4375z"/>
  </symbol>
  <symbol id="h" overflow="visible">
   <path d="m17.25-20.328v4.4375c-1.1562-0.50781-2.2812-0.89453-3.375-1.1562-1.0938-0.26953-2.1328-0.40625-3.1094-0.40625-1.293 0-2.25 0.18359-2.875 0.54688-0.61719 0.35547-0.92188 0.90625-0.92188 1.6562 0 0.5625 0.20703 1 0.625 1.3125 0.41406 0.3125 1.1758 0.57812 2.2812 0.79688l2.2969 0.46875c2.332 0.46875 3.9883 1.1836 4.9688 2.1406 0.98828 0.96094 1.4844 2.3203 1.4844 4.0781 0 2.3125-0.6875 4.0391-2.0625 5.1719-1.3672 1.125-3.4609 1.6875-6.2812 1.6875-1.3359 0-2.6719-0.125-4.0156-0.375-1.3359-0.25-2.6719-0.625-4.0156-1.125v-4.5781c1.3438 0.71875 2.6406 1.2617 3.8906 1.625 1.25 0.35547 2.457 0.53125 3.625 0.53125 1.1758 0 2.0781-0.19531 2.7031-0.59375 0.63281-0.39453 0.95312-0.95703 0.95312-1.6875 0-0.65625-0.21484-1.1602-0.64062-1.5156-0.42969-0.35156-1.2812-0.67188-2.5625-0.95312l-2.0938-0.46875c-2.0938-0.44531-3.6328-1.1602-4.6094-2.1406-0.96875-0.98828-1.4531-2.3164-1.4531-3.9844 0-2.0938 0.67188-3.7031 2.0156-4.8281 1.3516-1.125 3.2969-1.6875 5.8281-1.6875 1.1562 0 2.3438 0.089844 3.5625 0.26562 1.2188 0.16797 2.4766 0.42969 3.7812 0.78125z"/>
  </symbol>
  <symbol id="c" overflow="visible">
   <path d="m9.9062-12.531c-1.1172 0-1.9648 0.40234-2.5469 1.2031-0.58594 0.80469-0.875 1.9609-0.875 3.4688 0 1.5117 0.28906 2.668 0.875 3.4688 0.58203 0.80469 1.4297 1.2031 2.5469 1.2031 1.1016 0 1.9414-0.39844 2.5156-1.2031 0.58203-0.80078 0.875-1.957 0.875-3.4688 0-1.5078-0.29297-2.6641-0.875-3.4688-0.57422-0.80078-1.4141-1.2031-2.5156-1.2031zm0-3.5938c2.7188 0 4.8359 0.73438 6.3594 2.2031 1.5195 1.4609 2.2812 3.4805 2.2812 6.0625 0 2.5859-0.76172 4.6094-2.2812 6.0781-1.5234 1.4609-3.6406 2.1875-6.3594 2.1875s-4.8438-0.72656-6.375-2.1875c-1.5312-1.4688-2.2969-3.4922-2.2969-6.0781 0-2.582 0.76562-4.6016 2.2969-6.0625 1.5312-1.4688 3.6562-2.2031 6.375-2.2031z"/>
  </symbol>
  <symbol id="g" overflow="visible">
   <path d="m18.25-9.5938v9.5938h-5.0625v-7.3438c0-1.3516-0.03125-2.2852-0.09375-2.7969-0.0625-0.51953-0.16797-0.90625-0.3125-1.1562-0.19922-0.32031-0.46875-0.57031-0.8125-0.75-0.33594-0.1875-0.71484-0.28125-1.1406-0.28125-1.0547 0-1.8828 0.40625-2.4844 1.2188-0.59375 0.80469-0.89062 1.9219-0.89062 3.3594v7.75h-5.0312v-15.75h5.0312v2.3125c0.75781-0.91406 1.5664-1.5938 2.4219-2.0312 0.85156-0.4375 1.7969-0.65625 2.8281-0.65625 1.8125 0 3.1875 0.55859 4.125 1.6719 0.94531 1.1172 1.4219 2.7344 1.4219 4.8594z"/>
  </symbol>
  <symbol id="s" overflow="visible">
   <path d="m2.6406-21h5.4219v8h7.9844v-8h5.4062v21h-5.4062v-8.9062h-7.9844v8.9062h-5.4219z"/>
  </symbol>
  <symbol id="f" overflow="visible">
   <path d="m2.25-6.125v-9.625h5.0625v1.5781c0 0.85547-0.007812 1.9297-0.015625 3.2188-0.011719 1.2812-0.015625 2.1406-0.015625 2.5781 0 1.2617 0.03125 2.1719 0.09375 2.7344 0.070312 0.55469 0.1875 0.96094 0.34375 1.2188 0.20703 0.32422 0.47656 0.57422 0.8125 0.75 0.33203 0.17969 0.71094 0.26562 1.1406 0.26562 1.0508 0 1.875-0.39844 2.4688-1.2031 0.60156-0.8125 0.90625-1.9297 0.90625-3.3594v-7.7812h5.0312v15.75h-5.0312v-2.2812c-0.76172 0.91797-1.5703 1.5938-2.4219 2.0312-0.84375 0.4375-1.7773 0.65625-2.7969 0.65625-1.8125 0-3.1992-0.55469-4.1562-1.6719-0.94922-1.1133-1.4219-2.7344-1.4219-4.8594z"/>
  </symbol>
  <symbol id="r" overflow="visible">
   <path d="m12.781-21.875v3.2969h-2.7812c-0.71875 0-1.2188 0.13281-1.5 0.39062-0.28125 0.26172-0.42188 0.71094-0.42188 1.3438v1.0938h4.3125v3.5938h-4.3125v12.156h-5.0312v-12.156h-2.5v-3.5938h2.5v-1.0938c0-1.7188 0.47656-2.9844 1.4375-3.7969 0.95703-0.82031 2.4375-1.2344 4.4375-1.2344z"/>
  </symbol>
  <symbol id="q" overflow="visible">
   <path d="m17.016-13.141c0.63281-0.96875 1.3906-1.707 2.2656-2.2188 0.875-0.50781 1.8359-0.76562 2.8906-0.76562 1.8125 0 3.1914 0.55859 4.1406 1.6719 0.94531 1.1172 1.4219 2.7344 1.4219 4.8594v9.5938h-5.0625v-8.2188c0.007813-0.11328 0.015625-0.23438 0.015625-0.35938v-0.57812c0-1.1133-0.16797-1.9219-0.5-2.4219-0.32422-0.5-0.85156-0.75-1.5781-0.75-0.96094 0-1.6992 0.39844-2.2188 1.1875-0.51172 0.78125-0.77734 1.918-0.79688 3.4062v7.7344h-5.0625v-8.2188c0-1.7383-0.15234-2.8594-0.45312-3.3594-0.30469-0.5-0.83984-0.75-1.6094-0.75-0.96094 0-1.7031 0.39844-2.2344 1.1875-0.52344 0.79297-0.78125 1.9219-0.78125 3.3906v7.75h-5.0625v-15.75h5.0625v2.3125c0.61328-0.89453 1.3203-1.5664 2.125-2.0156 0.80078-0.44531 1.6875-0.67188 2.6562-0.67188 1.082 0 2.0391 0.26562 2.875 0.79688 0.83203 0.52344 1.4688 1.25 1.9062 2.1875z"/>
  </symbol>
  <symbol id="p" overflow="visible">
   <path d="m18.25-9.5938v9.5938h-5.0625v-7.3125c0-1.375-0.03125-2.3164-0.09375-2.8281-0.0625-0.51953-0.16797-0.90625-0.3125-1.1562-0.19922-0.32031-0.46875-0.57031-0.8125-0.75-0.33594-0.1875-0.71484-0.28125-1.1406-0.28125-1.0547 0-1.8828 0.40625-2.4844 1.2188-0.59375 0.80469-0.89062 1.9219-0.89062 3.3594v7.75h-5.0312v-21.875h5.0312v8.4375c0.75781-0.91406 1.5664-1.5938 2.4219-2.0312 0.85156-0.4375 1.7969-0.65625 2.8281-0.65625 1.8125 0 3.1875 0.55859 4.125 1.6719 0.94531 1.1172 1.4219 2.7344 1.4219 4.8594z"/>
  </symbol>
  <symbol id="o" overflow="visible">
   <path d="m2.6406-21h6.0469l7.6406 14.406v-14.406h5.125v21h-6.0469l-7.625-14.406v14.406h-5.1406z"/>
  </symbol>
  <symbol id="n" overflow="visible">
   <path d="m2.6406-21h8.9844c2.6758 0 4.7266 0.59375 6.1562 1.7812 1.4258 1.1875 2.1406 2.8828 2.1406 5.0781 0 2.1992-0.71484 3.8906-2.1406 5.0781-1.4297 1.1875-3.4805 1.7812-6.1562 1.7812h-3.5625v7.2812h-5.4219zm5.4219 3.9375v5.8594h2.9844c1.0508 0 1.8633-0.25391 2.4375-0.76562 0.57031-0.50781 0.85938-1.2344 0.85938-2.1719s-0.28906-1.6562-0.85938-2.1562c-0.57422-0.50781-1.3867-0.76562-2.4375-0.76562z"/>
  </symbol>
  <symbol id="m" overflow="visible">
   <path d="m2.4219-15.75h5.0312v15.469c0 2.1016-0.50781 3.7109-1.5156 4.8281-1.0117 1.1133-2.4805 1.6719-4.4062 1.6719h-2.4844v-3.3125h0.875c0.94531 0 1.5977-0.21875 1.9531-0.65625 0.36328-0.42969 0.54688-1.2734 0.54688-2.5312zm0-6.125h5.0312v4.1094h-5.0312z"/>
  </symbol>
  <symbol id="l" overflow="visible">
   <path d="m15.141-15.25v4.0938c-0.67969-0.46875-1.3672-0.8125-2.0625-1.0312-0.6875-0.22656-1.4023-0.34375-2.1406-0.34375-1.4062 0-2.5 0.41406-3.2812 1.2344-0.78125 0.82422-1.1719 1.9688-1.1719 3.4375s0.39062 2.6172 1.1719 3.4375c0.78125 0.82422 1.875 1.2344 3.2812 1.2344 0.78906 0 1.5391-0.11328 2.25-0.34375 0.70703-0.23828 1.3594-0.58594 1.9531-1.0469v4.1094c-0.78125 0.29297-1.5781 0.50781-2.3906 0.65625-0.8125 0.14453-1.625 0.21875-2.4375 0.21875-2.8438 0-5.0703-0.72656-6.6719-2.1875-1.6055-1.457-2.4062-3.4844-2.4062-6.0781s0.80078-4.6172 2.4062-6.0781c1.6016-1.457 3.8281-2.1875 6.6719-2.1875 0.82031 0 1.6328 0.074219 2.4375 0.21875 0.80078 0.14844 1.5977 0.36719 2.3906 0.65625z"/>
  </symbol>
 </defs>
 <path transform="matrix(5.7584 0 0 5.7584 147.94 0)" d="m53.14 27.57h15.04v67.68h-66.18v-67.68zm0 0" fill="none" stroke="#000" stroke-linecap="round" stroke-linejoin="round" stroke-width="4"/>
 <path transform="matrix(5.7584 0 0 5.7584 147.94 0)" d="m20 36.59v-19.59c0-5.3733 2.8668-10.338 7.5203-13.025 4.6536-2.687 10.386-2.687 15.04 0 4.6536 2.6863 7.5196 7.6512 7.5196 13.025v19.59" fill="none" stroke="#000" stroke-linecap="round" stroke-linejoin="round" stroke-width="4"/>
 <g>
  <use x="147.9375" y="646.375" xlink:href="#t"/>
  <use x="169.070312" y="646.375" xlink:href="#d"/>
  <use x="183.269531" y="646.375" xlink:href="#a"/>
  <use x="202.796875" y="646.375" xlink:href="#k"/>
  <use x="222.222656" y="646.375" xlink:href="#b"/>
  <use x="235.988281" y="646.375" xlink:href="#a"/>
  <use x="255.515625" y="646.375" xlink:href="#j"/>
  <use x="286.148438" y="646.375" xlink:href="#e"/>
  <use x="306.757812" y="646.375" xlink:href="#i"/>
  <use x="335.550781" y="646.375" xlink:href="#h"/>
  <use x="356.285156" y="646.375" xlink:href="#b"/>
  <use x="370.050781" y="646.375" xlink:href="#c"/>
  <use x="389.828125" y="646.375" xlink:href="#g"/>
  <use x="410.328125" y="646.375" xlink:href="#a"/>
  <use x="429.855469" y="646.375" xlink:href="#s"/>
  <use x="453.949219" y="646.375" xlink:href="#f"/>
  <use x="474.449219" y="646.375" xlink:href="#e"/>
  <use x="147.9375" y="675.167969" xlink:href="#r"/>
  <use x="160.464844" y="675.167969" xlink:href="#d"/>
  <use x="174.664062" y="675.167969" xlink:href="#c"/>
  <use x="194.445312" y="675.167969" xlink:href="#q"/>
  <use x="234.46875" y="675.167969" xlink:href="#b"/>
  <use x="248.234375" y="675.167969" xlink:href="#p"/>
  <use x="268.730469" y="675.167969" xlink:href="#a"/>
  <use x="298.28125" y="675.167969" xlink:href="#o"/>
  <use x="322.378906" y="675.167969" xlink:href="#c"/>
  <use x="342.15625" y="675.167969" xlink:href="#f"/>
  <use x="362.65625" y="675.167969" xlink:href="#g"/>
  <use x="393.175781" y="675.167969" xlink:href="#n"/>
  <use x="414.277344" y="675.167969" xlink:href="#d"/>
  <use x="428.476562" y="675.167969" xlink:href="#c"/>
  <use x="448.257812" y="675.167969" xlink:href="#m"/>
  <use x="458.125" y="675.167969" xlink:href="#a"/>
  <use x="477.652344" y="675.167969" xlink:href="#l"/>
  <use x="494.71875" y="675.167969" xlink:href="#b"/>
 </g>
</svg>
